M48
;Layer_Color=9474304
;FILE_FORMAT=2:5
INCH,LZ
;TYPE=PLATED
T1F00S00C0.00787
T2F00S00C0.01968
T3F00S00C0.02756
T4F00S00C0.03937
%
T01
X-0011417Y0127067
X-0007087
Y0131398
X-0011417
T02
X0104429Y0195276
X0065453Y0272146
X0008465Y0322342
T03
X0074173Y0220315
X0079173
Y0225315
Y0230315
X0074173
Y0225315
Y0235315
X0079173
Y0240315
X0074173
T04
X-0091831Y0265709
Y0275709
Y0285709
Y0295709
M30
